<?xml version="1.0" standalone="no"?>
<!DOCTYPE svg PUBLIC "-//W3C//DTD SVG 20010904//EN"
 "http://www.w3.org/TR/2001/REC-SVG-20010904/DTD/svg10.dtd">
<svg version="1.0" xmlns="http://www.w3.org/2000/svg"
 width="512.000000pt" height="512.000000pt" viewBox="0 0 800.000000 800.000000"
 preserveAspectRatio="xMidYMid meet">

<g transform="translate(152.000000,672.000000) scale(0.100000,-0.100000)"
fill="#000000" stroke="none"> 
<path d="M2008 4873 l-168 -167 0 -58 0 -58 -613 0 c-665 0 -679 -1 -773 -56
-63 -37 -139 -125 -166 -192 l-23 -57 -3 -1339 c-2 -1184 -1 -1346 13 -1400
31 -118 104 -207 215 -260 l65 -31 678 -3 677 -3 0 -47 c0 -126 -37 -332 -87
-484 l-35 -106 -171 -4 c-171 -3 -172 -3 -227 -34 -135 -77 -176 -247 -91
-375 32 -47 96 -94 150 -109 49 -14 2173 -14 2222 0 132 37 220 181 189 309
-18 76 -65 139 -130 175 -55 31 -56 31 -226 34 l-170 4 -27 67 c-52 136 -106
401 -107 528 l0 42 683 3 682 3 65 31 c111 53 184 142 215 260 13 54 15 220
13 1435 l-3 1374 -23 50 c-30 65 -92 128 -156 157 l-51 23 -607 3 -608 3 0
200 c0 199 0 200 -25 224 l-24 25 -592 0 -593 0 -168 -167z m1262 -248 l0
-275 -390 0 c-311 0 -397 -3 -423 -14 -18 -7 -101 -83 -184 -168 l-153 -154 0
-232 0 -232 -70 0 -70 0 0 524 0 524 126 4 c166 4 164 2 164 174 l0 124 500 0
500 0 0 -275z m-1140 140 c0 -20 -5 -25 -27 -25 l-26 0 23 25 c13 14 25 25 27
25 2 0 3 -11 3 -25z m-292 -432 l3 -113 -120 0 c-102 0 -122 -3 -142 -19 l-24
-19 -3 -914 c-2 -610 0 -925 7 -949 7 -23 20 -40 36 -47 33 -15 2010 -17 2049
-2 14 5 29 17 34 27 6 10 65 282 131 605 128 617 128 613 81 638 -10 5 -59 10
-109 10 l-91 0 0 374 c0 459 15 420 -159 424 l-121 4 0 49 0 49 578 0 c348 0
591 -4 612 -10 41 -11 94 -61 109 -103 8 -19 11 -389 11 -1168 l0 -1139 -2160
0 -2160 0 2 1118 c3 1067 4 1119 22 1152 37 71 102 124 171 141 17 4 302 6
635 6 l605 -2 3 -112z m1712 -458 l0 -325 -645 0 -645 0 0 180 0 180 125 0
c112 0 127 2 145 20 18 18 20 33 20 145 l0 125 500 0 500 0 0 -325z m-1140
200 c0 -20 -5 -25 -27 -25 l-26 0 23 25 c13 14 25 25 27 25 2 0 3 -11 3 -25z
m-572 -258 c2 -258 2 -259 -21 -286 -18 -22 -32 -73 -67 -242 -24 -118 -47
-221 -51 -229 -5 -8 -9 215 -9 496 0 281 3 514 7 518 4 4 37 6 73 4 l65 -3 3
-258z m1926 -439 c-3 -18 -50 -244 -104 -503 l-97 -470 -918 -3 c-506 -1 -922
1 -926 5 -5 6 164 854 195 979 l6 24 926 0 926 0 -8 -32z m951 -1648 c0 -175
-8 -203 -76 -271 -75 -75 92 -69 -2079 -69 -2192 0 -2005 -7 -2087 77 -59 61
-73 114 -73 278 0 72 3 135 7 138 3 4 974 6 2157 5 l2151 -3 0 -155z m-1655
-524 c0 -120 51 -389 99 -530 12 -33 21 -61 21 -63 0 -1 -279 -3 -620 -3 -341
0 -620 3 -620 8 0 4 11 40 25 80 42 129 85 378 85 499 l0 53 505 0 505 0 0
-44z m593 -750 c65 -26 92 -119 53 -178 -40 -61 18 -58 -1146 -58 -1164 0
-1106 -3 -1146 58 -38 58 -12 151 51 178 45 20 2141 20 2188 0z"/>
<path d="M2352 1700 c-26 -11 -44 -52 -35 -77 18 -52 22 -53 243 -53 195 0
208 1 225 20 23 25 24 76 1 98 -14 15 -43 17 -214 19 -108 1 -207 -2 -220 -7z"/>
</g>
</svg>
