<?xml version="1.0" standalone="no"?>
<!DOCTYPE svg PUBLIC "-//W3C//DTD SVG 20010904//EN"
 "http://www.w3.org/TR/2001/REC-SVG-20010904/DTD/svg10.dtd">
<svg version="1.0" xmlns="http://www.w3.org/2000/svg"
 width="96.000000pt" height="96.000000pt" viewBox="0 0 96.000000 96.000000"
 preserveAspectRatio="xMidYMid meet">

<g transform="translate(0.000000,96.000000) scale(0.100000,-0.100000)"
fill="#000000" stroke="none">
<path d="M525 718 c-51 -48 -56 -89 -17 -171 16 -36 46 -88 65 -116 l35 -52
45 73 c79 127 93 182 61 238 -23 38 -64 60 -113 60 -33 0 -49 -7 -76 -32z
m133 -28 c36 -34 38 -66 8 -129 -15 -31 -36 -67 -45 -80 l-18 -24 -37 65 c-52
94 -55 120 -18 158 36 36 78 40 110 10z"/>
<path d="M587 653 c-4 -3 -7 -17 -7 -30 0 -18 6 -23 24 -23 13 0 27 7 30 16
11 28 -27 57 -47 37z"/>
<path d="M310 676 l-75 -33 -3 -202 -2 -201 51 20 c28 11 64 27 81 36 29 15
35 14 118 -16 l88 -32 78 34 79 34 3 89 2 90 -20 -33 c-12 -19 -20 -50 -20
-75 0 -41 -2 -43 -47 -61 -26 -11 -48 -15 -50 -10 -2 5 -13 25 -26 44 l-22 35
-3 -47 -3 -46 -60 21 -59 22 0 158 c0 91 4 156 9 153 18 -11 22 28 5 41 -26
19 -41 16 -124 -21z m60 -179 l0 -153 -50 -21 -50 -21 0 156 0 157 38 17 c64
28 62 33 62 -135z"/>
</g>
</svg>
